<?xml version="1.0" encoding="UTF-8"?>
<svg version="1.1" xmlns="http://www.w3.org/2000/svg" width="200" height="200">
<path d="M0 0 C0.94466629 -0.00426498 1.88933258 -0.00852997 2.86262512 -0.01292419 C3.88714279 -0.01247101 4.91166046 -0.01201782 5.96722412 -0.0115509 C7.59986458 -0.01658882 7.59986458 -0.01658882 9.26548767 -0.02172852 C12.86366925 -0.03122703 16.46180422 -0.03318119 20.05999756 -0.03425598 C22.56477884 -0.03746968 25.06955993 -0.04083384 27.57434082 -0.04434204 C32.8265615 -0.05033081 38.07877038 -0.05222509 43.33099365 -0.05158997 C49.384529 -0.05099004 55.43797499 -0.06152724 61.49148774 -0.07733363 C67.33219905 -0.09203603 73.17287528 -0.09557662 79.01360321 -0.09498024 C81.49023554 -0.09615806 83.96686857 -0.10056871 86.44348907 -0.10831261 C89.91371497 -0.11814603 93.38371305 -0.11522092 96.85394287 -0.10920715 C97.87036362 -0.11482666 98.88678436 -0.12044617 99.93400574 -0.12623596 C111.34907351 -0.07614904 120.56501117 2.14693479 129.21624756 9.98918152 C135.4459033 16.65810785 139.27695919 24.73072573 139.30981445 33.9132843 C139.3155246 34.87195908 139.32123474 35.83063385 139.32711792 36.81835938 C139.32879471 38.38622444 139.32879471 38.38622444 139.33050537 39.98576355 C139.33547028 41.09194534 139.34043518 42.19812714 139.34555054 43.33782959 C139.36016814 47.0015678 139.3669744 50.66526267 139.37249756 54.32902527 C139.37825042 56.87768047 139.38400814 59.42633566 139.38977051 61.97499084 C139.39893695 66.6396388 139.40523697 71.30427378 139.40826726 75.96892846 C139.41273967 82.81447681 139.43025129 89.65982466 139.45926785 96.50531209 C139.48358354 102.45012845 139.49121625 108.3948955 139.49294281 114.33976364 C139.49596249 116.86023422 139.5039678 119.38070409 139.51712799 121.90114212 C139.53426366 125.43601212 139.53228932 128.97039963 139.52581787 132.5052948 C139.53503265 133.53839279 139.54424744 134.57149078 139.55374146 135.63589478 C139.49410886 146.08222068 137.02902957 155.09598422 130.16937256 163.13371277 C120.2291623 172.6137281 109.77338653 174.27996428 96.47332764 174.29484558 C95.40747437 174.29981049 94.34162109 174.30477539 93.24346924 174.30989075 C89.72527413 174.32446801 86.20712413 174.33130734 82.68890381 174.33683777 C80.23518371 174.34259328 77.78146362 174.34835096 75.32774353 174.35411072 C70.18404939 174.36460838 65.04037082 174.37045899 59.89666748 174.37394714 C53.32427183 174.37942634 46.75208391 174.40344759 40.1797533 174.4319191 C35.11036082 174.45059672 30.04101784 174.45575383 24.97159386 174.45728302 C22.54963738 174.46029897 20.12768156 174.46829152 17.70575905 174.4814682 C14.30781135 174.49863412 10.9103643 174.49662247 7.51239014 174.49015808 C6.52343246 174.49937286 5.53447479 174.50858765 4.51554871 174.51808167 C-7.19026048 174.44876015 -16.85297173 171.48836351 -25.58062744 163.53996277 C-31.63187613 157.12563916 -34.93263782 148.13281376 -34.97779846 139.36087036 C-34.98495377 138.40364075 -34.99210907 137.44641113 -34.9994812 136.46017456 C-35.0021701 135.41650223 -35.00485901 134.3728299 -35.00762939 133.29753113 C-35.01420059 132.19295563 -35.02077179 131.08838013 -35.02754211 129.95033264 C-35.04726636 126.29140656 -35.05893728 122.63252156 -35.06890869 118.97355652 C-35.07298422 117.7222098 -35.07705975 116.47086308 -35.08125877 115.18159676 C-35.09996807 109.2383495 -35.11453263 103.29511523 -35.12287074 97.35184568 C-35.13262353 90.51473791 -35.15889434 83.67795558 -35.19937164 76.84096235 C-35.23331525 70.90149492 -35.24502776 64.962106 -35.24907494 59.02253914 C-35.25393362 56.50567484 -35.26552697 53.98881384 -35.28411293 51.47201347 C-35.3085724 47.93963439 -35.30752612 44.40809473 -35.30059814 40.87565613 C-35.3134082 39.84615341 -35.32621826 38.8166507 -35.3394165 37.75595093 C-35.26484814 27.26446931 -32.15623967 17.81297525 -24.83062744 10.13371277 C-17.60490947 3.65852762 -9.80620968 0.0201146 0 0 Z " fill="#248CE8" transform="translate(47.83062744140625,12.866287231445313)"/>
<path d="M0 0 C2.28515625 0.22265625 2.28515625 0.22265625 4 1 C3.33103487 5.83381252 0.10787276 7.9079051 -3.3828125 11 C-5.24760898 12.84601238 -5.24760898 12.84601238 -4.87109375 15.109375 C-3.71334634 17.62215414 -2.0370864 19.160051 0 21 C4.98588841 19.00333635 8.00746127 14.8943067 11.5625 11.01953125 C14 9 14 9 16.3125 9.19921875 C16.869375 9.46347656 17.42625 9.72773437 18 10 C17.58685438 14.44926052 14.49538473 16.84100104 11.4375 19.75 C10.91736328 20.25660156 10.39722656 20.76320313 9.86132812 21.28515625 C8.58089916 22.53034405 7.29132446 23.76611502 6 25 C6.5259375 25.8353125 6.5259375 25.8353125 7.0625 26.6875 C8.28049532 29.69188844 8.09086898 30.95388705 7 34 C4.890625 36.60546875 4.890625 36.60546875 2.25 39.1875 C1.38890625 40.04730469 0.5278125 40.90710938 -0.359375 41.79296875 C-4.62150582 45.35525264 -8.00198925 46.27244118 -13.5 46.1875 C-14.4178125 46.18105469 -15.335625 46.17460938 -16.28125 46.16796875 C-19 46 -19 46 -21.44921875 45.1171875 C-23.95580296 44.74468183 -23.95580296 44.74468183 -25.51611328 46.04321289 C-27.20400176 47.61164365 -28.75744159 49.2362303 -30.3125 50.9375 C-33.1278125 53.9384375 -33.1278125 53.9384375 -36 57 C-30.06 57.33 -24.12 57.66 -18 58 C-17.34 56.68 -16.68 55.36 -16 54 C-15 53 -15 53 -11.1875 52.75 C-7.43317606 52.7700766 -5.91171807 53.60823159 -3 56 C1.34267377 55.50446669 3.53580804 53.0013499 6.45703125 49.98046875 C8.70792478 47.09134718 9.23327048 44.55483688 10 41 C12 39 12 39 15.4375 38.6875 C19 39 19 39 20.9375 40.125 C22.50422245 42.88980433 22.38976435 44.88188517 22 48 C21 49.8125 21 49.8125 19 51 C17.1746875 51.0928125 17.1746875 51.0928125 15.3125 51.1875 C9.56946843 51.63500895 6.55377619 55.85077726 3 60 C4.7936127 63.80635455 6.71053983 66.29533275 10 69 C12.32275177 69.40047444 14.65739357 69.7397104 17 70 C19 71.125 19 71.125 20 73 C19.93298553 76.75281005 19.76887129 79.08874514 17.3125 82 C14.13891085 83.37236288 12.27117546 82.99557514 9 82 C7 79 7 79 6.375 75.75 C4.50124324 70.63975429 1.23978594 68.24392924 -3 65 C-3.28875 65.639375 -3.5775 66.27875 -3.875 66.9375 C-5 69 -5 69 -7 70 C-10.3125 70.375 -10.3125 70.375 -14 70 C-14.66128906 69.18015625 -15.32257813 68.3603125 -16.00390625 67.515625 C-20.53113638 63.71440439 -24.89287181 64.33243469 -30.625 64.375 C-32.70056168 64.375 -34.77617138 64.36254508 -36.8515625 64.3359375 C-38.22562256 64.34439697 -38.22562256 64.34439697 -39.62744141 64.35302734 C-42 64 -42 64 -43.82177734 62.79150391 C-45.43727634 60.33511526 -45.45188445 58.88497868 -45 56 C-43.62304688 54.35693359 -43.62304688 54.35693359 -41.71875 52.8984375 C-33.94870573 46.90367518 -33.94870573 46.90367518 -29.40234375 38.57568359 C-29.19666382 35.19844548 -29.42194676 31.95186843 -29.71728516 28.58666992 C-30.22309034 22.47998225 -30.22309034 22.47998225 -28.7109375 19.2265625 C-26.9244192 17.24238685 -25.09970094 15.64250799 -23 14 C-21.95055205 12.81937106 -20.90831693 11.6322727 -19.875 10.4375 C-17 8 -17 8 -14.3125 8.125 C-13.1678125 8.558125 -13.1678125 8.558125 -12 9 C-8.87711884 9.34337072 -8.87711884 9.34337072 -6.87890625 6.99609375 C-5.3345108 5.29022694 -3.79284064 3.58188884 -2.25390625 1.87109375 C-1.51011719 1.25363281 -0.76632813 0.63617188 0 0 Z " fill="#F7FAFE" transform="translate(113,61)"/>
<path d="M0 0 C0 2.97 0 5.94 0 9 C-1.98567708 9.35807292 -3.97135417 9.71614583 -5.95703125 10.07421875 C-8.91921397 11.41654629 -9.58641819 13.10238056 -11 16 C-11.4047289 19.15397267 -11.4047289 19.15397267 -11.30078125 22.55078125 C-11.30916016 23.80697266 -11.31753906 25.06316406 -11.32617188 26.35742188 C-11.31709757 28.98248886 -11.29636843 31.60754284 -11.26367188 34.23242188 C-11.33227862 41.29169528 -11.62332996 46.10476308 -16.32104492 51.57104492 C-18.10760909 53.09158586 -19.9082501 53.96139283 -22 55 C-22.33 55.66 -22.66 56.32 -23 57 C-22.278125 57.20625 -21.55625 57.4125 -20.8125 57.625 C-16.65471282 59.65769595 -14.08589756 62.82820488 -12 67 C-11.90496319 69.10775429 -11.86812 71.21824735 -11.859375 73.328125 C-11.83037109 75.24044922 -11.83037109 75.24044922 -11.80078125 77.19140625 C-11.77189422 79.2169257 -11.75000209 81.2413515 -11.74951172 83.26708984 C-12.07209095 92.08091279 -12.07209095 92.08091279 -8.66015625 99.8671875 C-5.67719769 102.25881066 -3.78734334 102.8238445 0 103 C0 105.64 0 108.28 0 111 C-6.10529532 111.42105485 -9.14274942 111.10167827 -14 107 C-18.78927731 102.04245078 -20.10962844 98.43269483 -20.17578125 91.57421875 C-20.19962891 90.30255859 -20.22347656 89.03089844 -20.24804688 87.72070312 C-20.29460831 85.04325754 -20.32217311 82.36744294 -20.34179688 79.68945312 C-20.36951172 78.41392578 -20.39722656 77.13839844 -20.42578125 75.82421875 C-20.44036377 74.65979248 -20.45494629 73.49536621 -20.4699707 72.2956543 C-21.11206079 68.30322033 -22.45951375 66.1174402 -25 63 C-28.10935018 61.57220726 -28.10935018 61.57220726 -31 61 C-31 57.7 -31 54.4 -31 51 C-28.41210938 50.12109375 -28.41210938 50.12109375 -25.82421875 49.2421875 C-23.04531324 47.34991351 -22.29320106 45.0679585 -21 42 C-20.58187549 38.75434195 -20.58187549 38.75434195 -20.6640625 35.3515625 C-20.65117188 34.09859375 -20.63828125 32.845625 -20.625 31.5546875 C-20.625 28.94269665 -20.63276584 26.33069384 -20.6484375 23.71875 C-20.55682682 16.28301621 -20.24227682 10.61128106 -15 5 C-9.9296439 1.04512224 -6.37131443 -0.14158477 0 0 Z " fill="#F6FAFE" transform="translate(65,44)"/>
<path d="M0 0 C6.36064662 -0.69388872 9.69817883 0.52854511 15.01953125 4.00390625 C21.97952031 11.01880647 20.45831749 20.9681354 20.52734375 30.12890625 C20.65396056 38.98672997 20.65396056 38.98672997 24 47 C25.72786264 48.41768371 25.72786264 48.41768371 27.6875 48.9375 C29.3271875 49.4634375 29.3271875 49.4634375 31 50 C31 53.3 31 56.6 31 60 C29.3603125 60.5878125 29.3603125 60.5878125 27.6875 61.1875 C23.93210079 62.53377519 22.7480061 64.45735007 21 68 C20.56301676 71.2834509 20.56301676 71.2834509 20.62890625 74.83984375 C20.61150391 76.15017578 20.59410156 77.46050781 20.57617188 78.81054688 C20.56611191 80.87529418 20.56250196 82.93986789 20.56420898 85.00463867 C20.56061917 87.01230445 20.53251386 89.01987859 20.50390625 91.02734375 C20.50205322 92.22093506 20.5002002 93.41452637 20.49829102 94.64428711 C19.49914471 101.37298187 15.13117034 105.09584865 10 109 C6.78548731 110.60725635 3.56387464 110.05748185 0 110 C0 107.36 0 104.72 0 102 C1.60875 101.690625 1.60875 101.690625 3.25 101.375 C6.78749751 100.07791758 8.26569414 99.34446884 10.22314453 96.18505859 C12.45466986 89.90845529 11.37232854 82.28404613 11.22460938 75.71875 C11.25144688 68.25025658 11.71748675 63.73501599 17.10229492 58.33349609 C19.09101048 56.93604796 20.62065901 56.40799966 23 56 C23 55.34 23 54.68 23 54 C22.278125 53.79375 21.55625 53.5875 20.8125 53.375 C16.65471282 51.34230405 14.08589756 48.17179512 12 44 C11.88106485 41.88107646 11.82084543 39.75873958 11.7890625 37.63671875 C11.76070312 36.35732422 11.73234375 35.07792969 11.703125 33.75976562 C11.66194803 31.72567223 11.62505601 29.69181221 11.59863281 27.6574707 C11.57089954 25.69199451 11.52393811 23.7268196 11.4765625 21.76171875 C11.45674316 20.58569092 11.43692383 19.40966309 11.41650391 18.19799805 C10.96257068 14.7126104 10.08411401 12.80280695 8 10 C6.00306313 8.78856394 6.00306313 8.78856394 3.8125 8.1875 C2.554375 7.795625 1.29625 7.40375 0 7 C0 4.69 0 2.38 0 0 Z " fill="#F8FBFE" transform="translate(135,45)"/>
<path d="M0 0 C1.67542976 0.28604898 3.34385343 0.61781233 5 1 C4.67 2.65 4.34 4.3 4 6 C2.125 6.625 2.125 6.625 0 7 C-0.66 6.34 -1.32 5.68 -2 5 C-1.46428571 1.46428571 -1.46428571 1.46428571 0 0 Z " fill="#3291E9" transform="translate(101,119)"/>
<path d="M0 0 C-1.40844718 3.21524305 -3.10344786 5.32183868 -5.625 7.75 C-6.57246094 8.67039062 -6.57246094 8.67039062 -7.5390625 9.609375 C-8.02117188 10.06828125 -8.50328125 10.5271875 -9 11 C-9 7.25983417 -8.0658409 6.54723807 -5.625 3.8125 C-4.99851562 3.09707031 -4.37203125 2.38164062 -3.7265625 1.64453125 C-2 0 -2 0 0 0 Z " fill="#4299EB" transform="translate(28,20)"/>
</svg>
